<svg viewBox="0 0 45 45" fill="none" xmlns="http://www.w3.org/2000/svg">
<path d="M1.98547 6.8636L17.6049 22.4788L1.98965 38.0982C0.644074 39.4441 0.644365 41.626 1.9903 42.9716C3.33624 44.3172 5.51813 44.3169 6.86371 42.9709L22.479 27.3515L38.0983 42.9666C39.4442 44.3122 41.6261 44.3119 42.9717 42.966C44.3172 41.62 44.3169 39.4381 42.971 38.0926L27.3517 22.4775L42.9668 6.85826C44.3124 5.51233 44.3121 3.33043 42.9662 1.98486C41.6203 0.639293 39.4384 0.639584 38.0928 1.98551L22.4777 17.6048L6.85823 1.98955C5.5123 0.643982 3.3304 0.644274 1.98482 1.9902C0.639246 3.33614 0.639537 5.51803 1.98547 6.8636Z" fill="white" stroke="black"/>
</svg>
