<svg width="82" height="108" viewBox="0 0 82 108" fill="none" xmlns="http://www.w3.org/2000/svg">
<g filter="url(#filter0_d)">
<g clip-path="url(#clip0)" filter="url(#filter1_d)">
<path fill-rule="evenodd" clip-rule="evenodd" d="M59.0829 99.6282L49.5287 81.624L31.9691 81.6949L20.0704 69.6593L47.1012 69.5501L48.2037 65.7759L48.1069 40.8472L60.0055 52.8829L60.0959 76.1439L63.867 83.2502L59.0829 99.6282Z" fill="black"/>
<path fill-rule="evenodd" clip-rule="evenodd" d="M44.9374 37.6403L16.7895 37.7539L16.901 66.4523L28.7997 78.488L28.6882 49.7896L56.8361 49.676L44.9374 37.6403Z" fill="url(#paint0_linear)"/>
</g>
<path d="M14.4832 19.63C14.4832 20.79 14.2832 21.805 13.8832 22.675C13.4932 23.535 12.8632 24.18 11.9932 24.61L14.5882 27.55H11.3632L9.47316 25.15H9.33816C8.15816 25.15 7.18816 24.92 6.42816 24.46C5.66816 24 5.10316 23.355 4.73316 22.525C4.37316 21.695 4.19316 20.725 4.19316 19.615C4.19316 18.505 4.37316 17.54 4.73316 16.72C5.10316 15.9 5.66816 15.265 6.42816 14.815C7.18816 14.355 8.16316 14.125 9.35316 14.125C10.5432 14.125 11.5132 14.355 12.2632 14.815C13.0232 15.265 13.5832 15.905 13.9432 16.735C14.3032 17.555 14.4832 18.52 14.4832 19.63ZM6.87816 19.63C6.87816 20.68 7.06816 21.505 7.44816 22.105C7.83816 22.705 8.46816 23.005 9.33816 23.005C10.2282 23.005 10.8582 22.705 11.2282 22.105C11.6082 21.505 11.7982 20.68 11.7982 19.63C11.7982 18.58 11.6082 17.755 11.2282 17.155C10.8582 16.545 10.2332 16.24 9.35316 16.24C8.47316 16.24 7.83816 16.545 7.44816 17.155C7.06816 17.755 6.87816 18.58 6.87816 19.63ZM24.1716 16.765V25H22.2516L21.9216 23.95H21.7716C21.5116 24.37 21.1566 24.675 20.7066 24.865C20.2566 25.055 19.7766 25.15 19.2666 25.15C18.4166 25.15 17.7166 24.91 17.1666 24.43C16.6266 23.95 16.3566 23.185 16.3566 22.135V16.765H18.8916V21.43C18.8916 21.99 18.9816 22.415 19.1616 22.705C19.3516 22.995 19.6516 23.14 20.0616 23.14C20.6716 23.14 21.0866 22.915 21.3066 22.465C21.5266 22.015 21.6366 21.365 21.6366 20.515V16.765H24.1716ZM27.6229 13.495C27.9829 13.495 28.2979 13.575 28.5679 13.735C28.8379 13.895 28.9729 14.205 28.9729 14.665C28.9729 15.115 28.8379 15.425 28.5679 15.595C28.2979 15.755 27.9829 15.835 27.6229 15.835C27.2429 15.835 26.9179 15.755 26.6479 15.595C26.3879 15.425 26.2579 15.115 26.2579 14.665C26.2579 14.205 26.3879 13.895 26.6479 13.735C26.9179 13.575 27.2429 13.495 27.6229 13.495ZM28.8679 16.765V25H26.3479V16.765H28.8679ZM37.0047 25H30.3597V23.53L33.9897 18.7H30.5697V16.765H36.8547V18.355L33.3597 23.065H37.0047V25ZM42.5823 25V14.29H45.1323V22.915H49.3773V25H42.5823ZM54.6909 16.6C55.7609 16.6 56.5909 16.85 57.1809 17.35C57.7709 17.85 58.0659 18.58 58.0659 19.54V25H56.3109L55.8159 23.89H55.7559C55.4059 24.34 55.0359 24.665 54.6459 24.865C54.2559 25.055 53.7209 25.15 53.0409 25.15C52.3109 25.15 51.7059 24.935 51.2259 24.505C50.7459 24.075 50.5059 23.41 50.5059 22.51C50.5059 21.64 50.8109 20.995 51.4209 20.575C52.0409 20.145 52.9459 19.905 54.1359 19.855L55.5459 19.81V19.57C55.5459 19.17 55.4409 18.88 55.2309 18.7C55.0309 18.52 54.7509 18.43 54.3909 18.43C54.0309 18.43 53.6559 18.49 53.2659 18.61C52.8759 18.72 52.4809 18.86 52.0809 19.03L51.3159 17.35C51.7659 17.11 52.2759 16.925 52.8459 16.795C53.4159 16.665 54.0309 16.6 54.6909 16.6ZM54.7809 21.28C54.1509 21.3 53.7109 21.415 53.4609 21.625C53.2109 21.825 53.0859 22.1 53.0859 22.45C53.0859 22.76 53.1759 22.985 53.3559 23.125C53.5359 23.265 53.7659 23.335 54.0459 23.335C54.4659 23.335 54.8209 23.21 55.1109 22.96C55.4009 22.7 55.5459 22.35 55.5459 21.91V21.25L54.7809 21.28ZM65.1051 16.615C65.9751 16.615 66.6751 16.855 67.2051 17.335C67.7451 17.805 68.0151 18.57 68.0151 19.63V25H65.4951V20.335C65.4951 19.765 65.4001 19.335 65.2101 19.045C65.0201 18.755 64.7201 18.61 64.3101 18.61C63.7001 18.61 63.2851 18.84 63.0651 19.3C62.8451 19.75 62.7351 20.4 62.7351 21.25V25H60.2001V16.765H62.1201L62.4651 17.83H62.5851C62.8451 17.43 63.1951 17.13 63.6351 16.93C64.0751 16.72 64.5651 16.615 65.1051 16.615ZM72.7414 25.15C71.8514 25.15 71.1264 24.79 70.5664 24.07C70.0064 23.35 69.7264 22.29 69.7264 20.89C69.7264 19.48 70.0114 18.415 70.5814 17.695C71.1514 16.975 71.8964 16.615 72.8164 16.615C73.3964 16.615 73.8664 16.73 74.2264 16.96C74.5864 17.19 74.8764 17.475 75.0964 17.815H75.1564C75.1264 17.635 75.0914 17.38 75.0514 17.05C75.0214 16.71 75.0064 16.375 75.0064 16.045V13.6H77.5414V25H75.6214L75.1114 23.935H75.0064C74.7964 24.275 74.5114 24.565 74.1514 24.805C73.7914 25.035 73.3214 25.15 72.7414 25.15ZM73.7014 23.14C74.2414 23.14 74.6214 22.975 74.8414 22.645C75.0714 22.315 75.1914 21.815 75.2014 21.145V20.92C75.2014 20.19 75.0914 19.63 74.8714 19.24C74.6614 18.85 74.2614 18.655 73.6714 18.655C73.2414 18.655 72.9014 18.845 72.6514 19.225C72.4014 19.605 72.2764 20.175 72.2764 20.935C72.2764 21.685 72.4014 22.24 72.6514 22.6C72.9114 22.96 73.2614 23.14 73.7014 23.14Z" fill="#F5D142"/>
</g>
<defs>
<filter id="filter0_d" x="0.193176" y="13.495" width="81.3482" height="94.505" filterUnits="userSpaceOnUse" color-interpolation-filters="sRGB">
<feFlood flood-opacity="0" result="BackgroundImageFix"/>
<feColorMatrix in="SourceAlpha" type="matrix" values="0 0 0 0 0 0 0 0 0 0 0 0 0 0 0 0 0 0 127 0"/>
<feOffset dy="4"/>
<feGaussianBlur stdDeviation="2"/>
<feColorMatrix type="matrix" values="0 0 0 0 0 0 0 0 0 0 0 0 0 0 0 0 0 0 0.25 0"/>
<feBlend mode="normal" in2="BackgroundImageFix" result="effect1_dropShadow"/>
<feBlend mode="normal" in="SourceGraphic" in2="effect1_dropShadow" result="shape"/>
</filter>
<filter id="filter1_d" x="12.7895" y="37.5626" width="55.6098" height="70.4374" filterUnits="userSpaceOnUse" color-interpolation-filters="sRGB">
<feFlood flood-opacity="0" result="BackgroundImageFix"/>
<feColorMatrix in="SourceAlpha" type="matrix" values="0 0 0 0 0 0 0 0 0 0 0 0 0 0 0 0 0 0 127 0"/>
<feOffset dy="4"/>
<feGaussianBlur stdDeviation="2"/>
<feColorMatrix type="matrix" values="0 0 0 0 0 0 0 0 0 0 0 0 0 0 0 0 0 0 0.25 0"/>
<feBlend mode="normal" in2="BackgroundImageFix" result="effect1_dropShadow"/>
<feBlend mode="normal" in="SourceGraphic" in2="effect1_dropShadow" result="shape"/>
</filter>
<linearGradient id="paint0_linear" x1="39.6532" y1="32.2955" x2="22.97" y2="72.9192" gradientUnits="userSpaceOnUse">
<stop stop-color="#4744E9"/>
<stop offset="1" stop-color="#CC6161"/>
</linearGradient>
<clipPath id="clip0">
<rect width="47.3684" height="62.2466" fill="white" transform="matrix(0.999992 -0.00403765 0.00388424 0.999992 16.7895 37.7539)"/>
</clipPath>
</defs>
</svg>
