<svg viewBox="0 0 57 84" fill="none" xmlns="http://www.w3.org/2000/svg">
<g filter="url(#filter0_d)">
<path fill-rule="evenodd" clip-rule="evenodd" d="M47.0829 62.6282L37.5287 44.624L19.9691 44.6949L8.07043 32.6593L35.1012 32.5501L36.2037 28.7759L36.1069 3.84716L48.0055 15.8829L48.0959 39.1439L51.867 46.2502L47.0829 62.6282Z" fill="black"/>
<path fill-rule="evenodd" clip-rule="evenodd" d="M32.9374 0.640254L4.78949 0.753906L4.90096 29.4523L16.7997 41.488L16.6882 12.7896L44.8361 12.676L32.9374 0.640254Z" fill="url(#paint0_linear)"/>
<path d="M16.1052 75L16.1052 64.29L18.6552 64.29L18.6552 72.915L22.9002 72.915L22.9002 75L16.1052 75ZM28.2138 66.6C29.2838 66.6 30.1138 66.85 30.7038 67.35C31.2938 67.85 31.5888 68.58 31.5888 69.54L31.5888 75L29.8338 75L29.3388 73.89L29.2788 73.89C28.9288 74.34 28.5588 74.665 28.1688 74.865C27.7788 75.055 27.2438 75.15 26.5638 75.15C25.8338 75.15 25.2288 74.935 24.7488 74.505C24.2688 74.075 24.0288 73.41 24.0288 72.51C24.0288 71.64 24.3338 70.995 24.9438 70.575C25.5638 70.145 26.4688 69.905 27.6588 69.855L29.0688 69.81L29.0688 69.57C29.0688 69.17 28.9638 68.88 28.7538 68.7C28.5538 68.52 28.2738 68.43 27.9138 68.43C27.5538 68.43 27.1788 68.49 26.7888 68.61C26.3988 68.72 26.0038 68.86 25.6038 69.03L24.8388 67.35C25.2888 67.11 25.7988 66.925 26.3688 66.795C26.9388 66.665 27.5538 66.6 28.2138 66.6ZM28.3038 71.28C27.6738 71.3 27.2338 71.415 26.9838 71.625C26.7338 71.825 26.6088 72.1 26.6088 72.45C26.6088 72.76 26.6988 72.985 26.8788 73.125C27.0588 73.265 27.2888 73.335 27.5688 73.335C27.9888 73.335 28.3438 73.21 28.6338 72.96C28.9238 72.7 29.0688 72.35 29.0688 71.91L29.0688 71.25L28.3038 71.28ZM38.6281 66.615C39.4981 66.615 40.1981 66.855 40.7281 67.335C41.2681 67.805 41.5381 68.57 41.5381 69.63L41.5381 75L39.0181 75L39.0181 70.335C39.0181 69.765 38.9231 69.335 38.7331 69.045C38.5431 68.755 38.2431 68.61 37.8331 68.61C37.2231 68.61 36.8081 68.84 36.5881 69.3C36.3681 69.75 36.2581 70.4 36.2581 71.25L36.2581 75L33.7231 75L33.7231 66.765L35.6431 66.765L35.9881 67.83L36.1081 67.83C36.3681 67.43 36.7181 67.13 37.1581 66.93C37.5981 66.72 38.0881 66.615 38.6281 66.615ZM46.2644 75.15C45.3744 75.15 44.6494 74.79 44.0894 74.07C43.5294 73.35 43.2494 72.29 43.2494 70.89C43.2494 69.48 43.5344 68.415 44.1044 67.695C44.6744 66.975 45.4194 66.615 46.3394 66.615C46.9194 66.615 47.3894 66.73 47.7494 66.96C48.1094 67.19 48.3994 67.475 48.6194 67.815L48.6794 67.815C48.6494 67.635 48.6144 67.38 48.5744 67.05C48.5444 66.71 48.5294 66.375 48.5294 66.045L48.5294 63.6L51.0644 63.6L51.0644 75L49.1444 75L48.6344 73.935L48.5294 73.935C48.3194 74.275 48.0344 74.565 47.6744 74.805C47.3144 75.035 46.8444 75.15 46.2644 75.15ZM47.2244 73.14C47.7644 73.14 48.1444 72.975 48.3644 72.645C48.5944 72.315 48.7144 71.815 48.7244 71.145L48.7244 70.92C48.7244 70.19 48.6144 69.63 48.3944 69.24C48.1844 68.85 47.7844 68.655 47.1944 68.655C46.7644 68.655 46.4244 68.845 46.1744 69.225C45.9244 69.605 45.7994 70.175 45.7994 70.935C45.7994 71.685 45.9244 72.24 46.1744 72.6C46.4344 72.96 46.7844 73.14 47.2244 73.14Z" fill="white"/>
<path d="M16.5862 53.63C16.5862 54.79 16.3862 55.805 15.9862 56.675C15.5962 57.535 14.9662 58.18 14.0962 58.61L16.6912 61.55L13.4662 61.55L11.5762 59.15L11.4412 59.15C10.2612 59.15 9.29119 58.92 8.53119 58.46C7.77119 58 7.20619 57.355 6.83619 56.525C6.47619 55.695 6.29619 54.725 6.29619 53.615C6.29619 52.505 6.47619 51.54 6.83619 50.72C7.20619 49.9 7.77119 49.265 8.53119 48.815C9.29119 48.355 10.2662 48.125 11.4562 48.125C12.6462 48.125 13.6162 48.355 14.3662 48.815C15.1262 49.265 15.6862 49.905 16.0462 50.735C16.4062 51.555 16.5862 52.52 16.5862 53.63ZM8.98119 53.63C8.98119 54.68 9.17119 55.505 9.55119 56.105C9.94119 56.705 10.5712 57.005 11.4412 57.005C12.3312 57.005 12.9612 56.705 13.3312 56.105C13.7112 55.505 13.9012 54.68 13.9012 53.63C13.9012 52.58 13.7112 51.755 13.3312 51.155C12.9612 50.545 12.3362 50.24 11.4562 50.24C10.5762 50.24 9.94119 50.545 9.55119 51.155C9.17119 51.755 8.98119 52.58 8.98119 53.63ZM26.2747 50.765L26.2747 59L24.3547 59L24.0247 57.95L23.8747 57.95C23.6147 58.37 23.2597 58.675 22.8097 58.865C22.3597 59.055 21.8797 59.15 21.3697 59.15C20.5197 59.15 19.8197 58.91 19.2697 58.43C18.7297 57.95 18.4597 57.185 18.4597 56.135L18.4597 50.765L20.9947 50.765L20.9947 55.43C20.9947 55.99 21.0847 56.415 21.2647 56.705C21.4547 56.995 21.7547 57.14 22.1647 57.14C22.7747 57.14 23.1897 56.915 23.4097 56.465C23.6297 56.015 23.7397 55.365 23.7397 54.515L23.7397 50.765L26.2747 50.765ZM29.726 47.495C30.086 47.495 30.401 47.575 30.671 47.735C30.941 47.895 31.076 48.205 31.076 48.665C31.076 49.115 30.941 49.425 30.671 49.595C30.401 49.755 30.086 49.835 29.726 49.835C29.346 49.835 29.021 49.755 28.751 49.595C28.491 49.425 28.361 49.115 28.361 48.665C28.361 48.205 28.491 47.895 28.751 47.735C29.021 47.575 29.346 47.495 29.726 47.495ZM30.971 50.765L30.971 59L28.451 59L28.451 50.765L30.971 50.765ZM39.1078 59L32.4628 59L32.4628 57.53L36.0928 52.7L32.6728 52.7L32.6728 50.765L38.9578 50.765L38.9578 52.355L35.4628 57.065L39.1078 57.065L39.1078 59Z" fill="white"/>
</g>
<defs>
<filter id="filter0_d" x="0.78949" y="0.640259" width="55.0775" height="82.5097" filterUnits="userSpaceOnUse" color-interpolation-filters="sRGB">
<feFlood flood-opacity="0" result="BackgroundImageFix"/>
<feColorMatrix in="SourceAlpha" type="matrix" values="0 0 0 0 0 0 0 0 0 0 0 0 0 0 0 0 0 0 127 0"/>
<feOffset dy="4"/>
<feGaussianBlur stdDeviation="2"/>
<feColorMatrix type="matrix" values="0 0 0 0 0 0 0 0 0 0 0 0 0 0 0 0 0 0 0.25 0"/>
<feBlend mode="normal" in2="BackgroundImageFix" result="effect1_dropShadow"/>
<feBlend mode="normal" in="SourceGraphic" in2="effect1_dropShadow" result="shape"/>
</filter>
<linearGradient id="paint0_linear" x1="27.6532" y1="-4.70454" x2="10.97" y2="35.9192" gradientUnits="userSpaceOnUse">
<stop stop-color="#4744E9"/>
<stop offset="1" stop-color="#CC6161"/>
</linearGradient>
</defs>
</svg>
