<svg viewBox="0 0 101 33" fill="none" xmlns="http://www.w3.org/2000/svg">
<rect width="101" height="33" rx="4" fill="#F32B2B"/>
<rect x="2" y="2" width="97" height="29" rx="5" fill="#C4C4C4"/>
<path d="M27.2498 24H25.4498V9.72H33.4298V11.3H27.2498V16.36H33.0498V17.94H27.2498V24ZM36.4809 9.26C36.7475 9.26 36.9809 9.35333 37.1809 9.54C37.3942 9.71333 37.5009 9.99333 37.5009 10.38C37.5009 10.7533 37.3942 11.0333 37.1809 11.22C36.9809 11.4067 36.7475 11.5 36.4809 11.5C36.1875 11.5 35.9409 11.4067 35.7409 11.22C35.5409 11.0333 35.4409 10.7533 35.4409 10.38C35.4409 9.99333 35.5409 9.71333 35.7409 9.54C35.9409 9.35333 36.1875 9.26 36.4809 9.26ZM37.3409 13.28V24H35.5809V13.28H37.3409ZM45.8971 13.08C47.1771 13.08 48.1438 13.3933 48.7971 14.02C49.4504 14.6333 49.7771 15.6333 49.7771 17.02V24H48.0371V17.14C48.0371 15.42 47.2371 14.56 45.6371 14.56C44.4504 14.56 43.6304 14.8933 43.1771 15.56C42.7238 16.2267 42.4971 17.1867 42.4971 18.44V24H40.7371V13.28H42.1571L42.4171 14.74H42.5171C42.8638 14.18 43.3438 13.7667 43.9571 13.5C44.5704 13.22 45.2171 13.08 45.8971 13.08ZM54.0004 9.26C54.2671 9.26 54.5004 9.35333 54.7004 9.54C54.9137 9.71333 55.0204 9.99333 55.0204 10.38C55.0204 10.7533 54.9137 11.0333 54.7004 11.22C54.5004 11.4067 54.2671 11.5 54.0004 11.5C53.7071 11.5 53.4604 11.4067 53.2604 11.22C53.0604 11.0333 52.9604 10.7533 52.9604 10.38C52.9604 9.99333 53.0604 9.71333 53.2604 9.54C53.4604 9.35333 53.7071 9.26 54.0004 9.26ZM54.8604 13.28V24H53.1004V13.28H54.8604ZM65.2366 21.04C65.2366 22.08 64.85 22.8667 64.0766 23.4C63.3033 23.9333 62.2633 24.2 60.9566 24.2C60.21 24.2 59.5633 24.14 59.0166 24.02C58.4833 23.9 58.01 23.7333 57.5966 23.52V21.92C58.0233 22.1333 58.5366 22.3333 59.1366 22.52C59.75 22.6933 60.37 22.78 60.9966 22.78C61.89 22.78 62.5366 22.64 62.9366 22.36C63.3366 22.0667 63.5366 21.68 63.5366 21.2C63.5366 20.9333 63.4633 20.6933 63.3166 20.48C63.17 20.2667 62.9033 20.0533 62.5166 19.84C62.1433 19.6267 61.6033 19.3867 60.8966 19.12C60.2033 18.8533 59.61 18.5867 59.1166 18.32C58.6233 18.0533 58.2433 17.7333 57.9766 17.36C57.71 16.9867 57.5766 16.5067 57.5766 15.92C57.5766 15.0133 57.9433 14.3133 58.6766 13.82C59.4233 13.3267 60.3966 13.08 61.5966 13.08C62.25 13.08 62.8566 13.1467 63.4166 13.28C63.99 13.4 64.5233 13.5733 65.0166 13.8L64.4166 15.2C63.9633 15.0133 63.49 14.8533 62.9966 14.72C62.5033 14.5867 61.9966 14.52 61.4766 14.52C60.7566 14.52 60.2033 14.64 59.8166 14.88C59.4433 15.1067 59.2566 15.42 59.2566 15.82C59.2566 16.1133 59.3433 16.3667 59.5166 16.58C59.69 16.78 59.9766 16.98 60.3766 17.18C60.79 17.3667 61.3366 17.5933 62.0166 17.86C62.6966 18.1133 63.2766 18.3733 63.7566 18.64C64.2366 18.9067 64.6033 19.2333 64.8566 19.62C65.11 19.9933 65.2366 20.4667 65.2366 21.04ZM69.587 13.26C69.587 13.7933 69.5536 14.2933 69.487 14.76H69.607C69.9536 14.2133 70.4203 13.8 71.007 13.52C71.607 13.24 72.2536 13.1 72.947 13.1C74.2536 13.1 75.2336 13.4133 75.887 14.04C76.5403 14.6533 76.867 15.6467 76.867 17.02V24H75.127V17.14C75.127 15.42 74.327 14.56 72.727 14.56C71.527 14.56 70.7003 14.9 70.247 15.58C69.807 16.2467 69.587 17.2067 69.587 18.46V24H67.827V8.8H69.587V13.26Z" fill="#F32B2B"/>
</svg>
