<svg  viewBox="0 0 60 60" fill="none" xmlns="http://www.w3.org/2000/svg">
<path d="M26.5507 4.46838L26.5536 26.5544L4.46735 26.5574C2.56417 26.5576 1.02154 28.1007 1.02179 30.0039C1.02204 31.9071 2.56508 33.4497 4.46826 33.4494L26.5545 33.4464L26.5574 55.5327C26.5577 57.4358 28.1007 58.9785 30.0039 58.9782C31.9071 58.9779 33.4497 57.4349 33.4494 55.5317L33.4465 33.4455L55.5325 33.4425C57.4357 33.4423 58.9784 31.8992 58.9781 29.996C58.9778 28.0929 57.4348 26.5502 55.5316 26.5505L33.4456 26.5535L33.4427 4.46745C33.4424 2.56427 31.8994 1.02164 29.9962 1.0219C28.093 1.02215 26.5504 2.5652 26.5507 4.46838Z" fill="white" stroke="black"/>
</svg>
