<svg viewBox="0 0 29 15"  stroke="black" xmlns="http://www.w3.org/2000/svg">
                        <path d="M0.00012207 1.5C0.00012207 0.671573 0.671695 0 1.50012 0H27.5001C28.3285 0 29.0001 0.671573 29.0001 1.5C29.0001 2.32843 28.3285 3 27.5001 3H1.50012C0.671695 3 0.00012207 2.32843 0.00012207 1.5Z" fill="#FFFFFF" />
                        <path d="M0.00012207 7.5C0.00012207 6.67157 0.671695 6 1.50012 6H27.5001C28.3285 6 29.0001 6.67157 29.0001 7.5C29.0001 8.32843 28.3285 9 27.5001 9H1.50012C0.671695 9 0.00012207 8.32843 0.00012207 7.5Z" fill="#FFFFFF" />
                        <path d="M0.00012207 13.5C0.00012207 12.6716 0.671695 12 1.50012 12H27.5001C28.3285 12 29.0001 12.6716 29.0001 13.5C29.0001 14.3284 28.3285 15 27.5001 15H1.50012C0.671695 15 0.00012207 14.3284 0.00012207 13.5Z" fill="#FFFFFF" />
                    </svg>