<svg viewBox="0 0 78 77" fill="none" xmlns="http://www.w3.org/2000/svg">
<path d="M12 1.00018C20 1.00037 64 1.00018 64 1.00018L52 12.5C52 12.5 20.5 12.5002 17 12.5C13.5 12.4998 12.5 13.5 12.5 17V59C12.5 62.9998 13.5 64.5 17 64.5H60C63 64.5 64 63.5 64 60L64 25L76 14V65.0002C76 73 73 76.0002 65 76.0002H12C4 76.0002 1.00002 73 1.00002 65.0002V12.0002C1.00002 4.00002 4 1 12 1.00018Z" fill="#554FA7" stroke="#554FA7"/>
<path d="M28.0259 45.7919L29.8293 37.0772L36.8747 44.6781L28.0259 45.7919Z" fill="#554FA7"/>
<path d="M66.2154 2.94842L62.6377 6.19519L70.6618 15.0373L74.2395 11.7905C75.8355 10.3743 76.2022 9.66535 75.2399 8.57931L70.0815 2.8951C68.7302 1.4161 67.822 1.50418 66.2154 2.94842Z" stroke="#554FA7"/>
<path d="M42.0576 41.0309L67.8173 17.6542L59.7752 8.79218L34.0154 32.169L42.0576 41.0309Z" fill="#554FA7" stroke="#554FA7"/>
</svg>
